Coordinates
version=1
nRows=12
nColumns=33
inDegrees=yes

Units are S.I. units (second, meters, Newtons, ...)
Angles are in degrees.

endheader
time	ground_thorax_rot_x	ground_thorax_rot_y	ground_thorax_rot_z	ground_thorax_tx	ground_thorax_ty	ground_thorax_tz	clav_prot_r	clav_elev_r	scapula_abduction_r	scapula_elevation_r	scapula_upward_rot_r	scapula_winging_r	shoulder_elv_r	plane_of_elev_r	axial_rot_r	elbow_flexion_r	pro_sup_r	wrist_flex_r	wrist_dev_r	clav_prot_l	clav_elev_l	scapula_abduction_l	scapula_elevation_l	scapula_upward_rot_l	scapula_winging_l	shoulder_elv_l	plane_of_elev_l	axial_rot_l	elbow_flexion_l	pro_sup_l	wrist_flex_l	wrist_dev_l
      7.68000000	    -21.40092707	    -33.05898958	     50.18769040	     38.66461903	    805.36339557	    -43.07695536	     27.45766270	    -45.00000000	     40.65838669	    -45.00000000	    -45.00000000	   1699.32007982	   4752.47603287	     21.60918941	   -155.44830164	   2519.10255104	    172.14601556	     12.07976398	     15.04105805	     -0.15408097	     31.04087578	    -29.80021988	    -45.00000000	    -45.00000000	   3322.45797529	  -3882.79540285	     28.58313593	     63.08484869	   1069.68824290	     46.65871189	     13.98397982	    -16.22435265
      7.69000000	    -21.15898093	    -33.12904397	     50.63039467	     41.40351521	    803.71467035	    -42.87752114	     27.51975063	    -45.00000000	     40.63329671	    -45.00000000	    -45.00000000	   1699.38276522	   4752.38684826	     21.51382444	   -155.04457568	   2519.19498945	    172.53079035	     12.02190082	     14.96684115	     -0.18946762	     30.97059835	    -29.62092404	    -45.00000000	    -45.00000000	   3322.28329062	  -3882.90996929	     28.53262947	     62.82602669	   1069.69114825	     46.70416727	     13.92764783	    -16.10392356
      7.70000000	    -20.85549507	    -33.20120437	     51.15750499	     44.11535295	    802.04844592	    -42.68785648	     27.56607344	    -45.00000000	     40.68534218	    -45.00000000	    -45.00000000	   1699.40991429	   4752.32362298	     21.33496207	   -154.58417684	   2519.23177973	    172.89942721	     11.97109905	     14.88295853	     -0.24055582	     30.86096287	    -29.43031902	    -45.00000000	    -45.00000000	   3322.04040264	  -3883.02273010	     28.41084550	     62.46807129	   1069.65845009	     46.74739983	     13.87090679	    -15.96085601
      7.71000000	    -20.60943308	    -33.27819461	     51.60960653	     46.79141291	    800.37070149	    -42.50855428	     27.62795790	    -45.00000000	     40.65767378	    -45.00000000	    -45.00000000	   1699.47211552	   4752.25055636	     21.20537124	   -154.10351697	   2519.30379492	    173.24372693	     11.93964097	     14.78302579	     -0.29251070	     30.80803587	    -29.24556040	    -45.00000000	    -45.00000000	   3321.83198982	  -3883.17236981	     28.30191301	     62.09058759	   1069.65367938	     46.77219553	     13.78878400	    -15.81654823
      7.72000000	    -20.42092875	    -33.35746020	     52.00358233	     49.42972894	    798.68582126	    -42.33876262	     27.70471052	    -45.00000000	     40.57778047	    -45.00000000	    -45.00000000	   1699.51422747	   4752.13477463	     21.13220318	   -153.52500403	   2519.40574973	    173.57722275	     11.90242802	     14.71874977	     -0.31328983	     30.74307752	    -29.04450263	    -45.00000000	    -45.00000000	   3321.72341516	  -3883.26925802	     28.27519215	     61.86102124	   1069.66992177	     46.77325510	     13.73654169	    -15.72039214
      7.73000000	    -20.17052674	    -33.42481525	     52.44718266	     52.01800453	    797.00426671	    -42.17745217	     27.76006891	    -45.00000000	     40.57954181	    -45.00000000	    -45.00000000	   1699.55134010	   4752.06938337	     20.99252615	   -153.02771339	   2519.47984445	    173.88206719	     11.85221881	     14.64276349	     -0.36119642	     30.64119327	    -28.84527858	    -45.00000000	    -45.00000000	   3321.51667655	  -3883.39895038	     28.17961470	     61.46833639	   1069.63647383	     46.78244984	     13.69220895	    -15.60724403
      7.74000000	    -19.95961728	    -33.46969132	     52.86604268	     54.54745833	    795.33543662	    -42.02260314	     27.82710098	    -45.00000000	     40.53215682	    -45.00000000	    -45.00000000	   1699.58712852	   4752.00292276	     20.84940264	   -152.42748578	   2519.55334676	    174.16528949	     11.82008333	     14.54976442	     -0.39457123	     30.57286741	    -28.64988228	    -45.00000000	    -45.00000000	   3321.31670466	  -3883.51674558	     28.09635069	     61.10876116	   1069.62079385	     46.78156906	     13.61491470	    -15.47612488
      7.75000000	    -19.76819092	    -33.54791204	     53.23910250	     57.00953760	    793.68815555	    -41.87263063	     27.89648927	    -45.00000000	     40.47966818	    -45.00000000	    -45.00000000	   1699.62111663	   4751.89136375	     20.76490669	   -151.92087722	   2519.65561257	    174.42902087	     11.76285008	     14.49271872	     -0.44054517	     30.51703996	    -28.43657288	    -45.00000000	    -45.00000000	   3321.17618934	  -3883.65238809	     28.04576027	     60.72541278	   1069.63435342	     46.77100256	     13.56755460	    -15.39515087
      7.76000000	    -19.55478424	    -33.60408660	     53.64475586	     59.39635747	    792.07137023	    -41.72683235	     27.95975635	    -45.00000000	     40.45771104	    -45.00000000	    -45.00000000	   1699.64584754	   4751.83369207	     20.61443081	   -151.33374767	   2519.70788685	    174.68216796	     11.71658291	     14.41369653	     -0.47932445	     30.42447710	    -28.24023418	    -45.00000000	    -45.00000000	   3320.98277509	  -3883.77152122	     27.94534965	     60.31821368	   1069.61825556	     46.77285115	     13.51339684	    -15.29686572
      7.77000000	    -19.36330874	    -33.66509257	     54.01402692	     61.70596447	    790.49013309	    -41.58629347	     28.01811463	    -45.00000000	     40.41789181	    -45.00000000	    -45.00000000	   1699.67106853	   4751.76111536	     20.49283728	   -150.75881513	   2519.76765400	    174.90544295	     11.66623473	     14.33611164	     -0.52385865	     30.35809826	    -28.04213857	    -45.00000000	    -45.00000000	   3320.79712794	  -3883.90104249	     27.85941923	     59.90147250	   1069.61357430	     46.77873281	     13.44768171	    -15.19985794
      7.78000000	    -19.16945738	    -33.66266157	     54.41535973	     63.93891185	    788.94795352	    -41.45330484	     28.07386153	    -45.00000000	     40.35858348	    -45.00000000	    -45.00000000	   1699.68474281	   4751.78055255	     20.31406843	   -150.12684431	   2519.77609566	    175.09241206	     11.63001162	     14.20402273	     -0.56705577	     30.24928908	    -27.84253623	    -45.00000000	    -45.00000000	   3320.49339192	  -3883.98551802	     27.73083410	     59.43445713	   1069.59206692	     46.79863976	     13.34490200	    -15.05809970
      7.79000000	    -18.99302807	    -33.71965740	     54.77396829	     66.10283137	    787.44310798	    -41.33052540	     28.13009176	    -45.00000000	     40.29189732	    -45.00000000	    -45.00000000	   1699.66840512	   4751.70288907	     20.23211438	   -149.48272431	   2519.85444611	    175.24554268	     11.57458925	     14.13191339	     -0.62295174	     30.21422995	    -27.60776559	    -45.00000000	    -45.00000000	   3320.32737416	  -3884.09687400	     27.69243518	     59.00174768	   1069.59825371	     46.81232849	     13.27855986	    -14.97836878
